<svg xmlns="http://www.w3.org/2000/svg" viewBox="0 0 800 500"><defs><linearGradient id="sky" x1="0" y1="0" x2="0" y2="1">
    <stop offset="0" stop-color="#cdd6d3"/><stop offset="1" stop-color="#e4e8e2"/>
  </linearGradient></defs>
  <rect width="800" height="500" fill="url(#sky)"/><g fill="#ffffff" opacity="0.75">
      <ellipse cx="381" cy="7" rx="46" ry="16"/>
      <ellipse cx="411" cy="-3" rx="30" ry="13"/>
      <ellipse cx="349" cy="1" rx="26" ry="11"/></g><g fill="#ffffff" opacity="0.75">
      <ellipse cx="68" cy="-12" rx="46" ry="16"/>
      <ellipse cx="98" cy="-22" rx="30" ry="13"/>
      <ellipse cx="36" cy="-18" rx="26" ry="11"/></g><g fill="#ffffff" opacity="0.75">
      <ellipse cx="395" cy="14" rx="46" ry="16"/>
      <ellipse cx="425" cy="4" rx="30" ry="13"/>
      <ellipse cx="363" cy="8" rx="26" ry="11"/></g><rect y="430" width="800" height="70" fill="#b0a58e"/><rect x="150" y="175" width="470" height="255" fill="#b9aa93"/><rect x="136" y="153" width="498" height="26" fill="#6d6258"/><ellipse cx="449" cy="211" rx="18" ry="8" fill="#8f8069" opacity="0.35"/><ellipse cx="196" cy="150" rx="26" ry="8" fill="#8f8069" opacity="0.35"/><ellipse cx="353" cy="187" rx="34" ry="8" fill="#8f8069" opacity="0.35"/><ellipse cx="510" cy="138" rx="18" ry="8" fill="#8f8069" opacity="0.35"/><ellipse cx="257" cy="114" rx="26" ry="8" fill="#8f8069" opacity="0.35"/><ellipse cx="414" cy="102" rx="34" ry="8" fill="#8f8069" opacity="0.35"/><path d="M190 175 v40 M560 175 v56" stroke="#8f8069" stroke-width="6" opacity="0.4"/><rect x="180" y="209" width="34" height="76" fill="#5f6e75" stroke="#4a4238" stroke-width="2"/>
        <circle cx="208" cy="249" r="2.5" fill="#d8c66a"/>
        <rect x="226" y="217" width="44" height="44" fill="#bcd6de" stroke="#6a6a5f" stroke-width="3"/>
        <line x1="248" y1="217" x2="248" y2="261" stroke="#6a6a5f" stroke-width="2"/><rect x="226" y="265" width="20" height="14" fill="#9aa3a5" stroke="#7b8385"/><rect x="292" y="209" width="34" height="76" fill="#5f6e75" stroke="#4a4238" stroke-width="2"/>
        <circle cx="320" cy="249" r="2.5" fill="#d8c66a"/>
        <rect x="338" y="217" width="44" height="44" fill="#bcd6de" stroke="#6a6a5f" stroke-width="3"/>
        <line x1="360" y1="217" x2="360" y2="261" stroke="#6a6a5f" stroke-width="2"/><rect x="338" y="265" width="20" height="14" fill="#9aa3a5" stroke="#7b8385"/><rect x="404" y="209" width="34" height="76" fill="#5f6e75" stroke="#4a4238" stroke-width="2"/>
        <circle cx="432" cy="249" r="2.5" fill="#d8c66a"/>
        <rect x="450" y="217" width="44" height="44" fill="#bcd6de" stroke="#6a6a5f" stroke-width="3"/>
        <line x1="472" y1="217" x2="472" y2="261" stroke="#6a6a5f" stroke-width="2"/><rect x="450" y="265" width="20" height="14" fill="#9aa3a5" stroke="#7b8385"/><rect x="516" y="209" width="34" height="76" fill="#5f6e75" stroke="#4a4238" stroke-width="2"/>
        <circle cx="544" cy="249" r="2.5" fill="#d8c66a"/>
        <rect x="562" y="217" width="44" height="44" fill="#bcd6de" stroke="#6a6a5f" stroke-width="3"/>
        <line x1="584" y1="217" x2="584" y2="261" stroke="#6a6a5f" stroke-width="2"/><rect x="562" y="265" width="20" height="14" fill="#9aa3a5" stroke="#7b8385"/><rect x="142" y="287" width="486" height="10" fill="#a3937c"/>
      <line x1="142" y1="195" x2="628" y2="195" stroke="#8d9598" stroke-width="4"/><rect x="180" y="337" width="34" height="76" fill="#5f6e75" stroke="#4a4238" stroke-width="2"/>
        <circle cx="208" cy="377" r="2.5" fill="#d8c66a"/>
        <rect x="226" y="345" width="44" height="44" fill="#bcd6de" stroke="#6a6a5f" stroke-width="3"/>
        <line x1="248" y1="345" x2="248" y2="389" stroke="#6a6a5f" stroke-width="2"/><rect x="226" y="393" width="20" height="14" fill="#9aa3a5" stroke="#7b8385"/><rect x="292" y="337" width="34" height="76" fill="#5f6e75" stroke="#4a4238" stroke-width="2"/>
        <circle cx="320" cy="377" r="2.5" fill="#d8c66a"/>
        <rect x="338" y="345" width="44" height="44" fill="#bcd6de" stroke="#6a6a5f" stroke-width="3"/>
        <line x1="360" y1="345" x2="360" y2="389" stroke="#6a6a5f" stroke-width="2"/><rect x="338" y="393" width="20" height="14" fill="#9aa3a5" stroke="#7b8385"/><rect x="404" y="337" width="34" height="76" fill="#5f6e75" stroke="#4a4238" stroke-width="2"/>
        <circle cx="432" cy="377" r="2.5" fill="#d8c66a"/>
        <rect x="450" y="345" width="44" height="44" fill="#bcd6de" stroke="#6a6a5f" stroke-width="3"/>
        <line x1="472" y1="345" x2="472" y2="389" stroke="#6a6a5f" stroke-width="2"/><rect x="450" y="393" width="20" height="14" fill="#9aa3a5" stroke="#7b8385"/><rect x="516" y="337" width="34" height="76" fill="#5f6e75" stroke="#4a4238" stroke-width="2"/>
        <circle cx="544" cy="377" r="2.5" fill="#d8c66a"/>
        <rect x="562" y="345" width="44" height="44" fill="#bcd6de" stroke="#6a6a5f" stroke-width="3"/>
        <line x1="584" y1="345" x2="584" y2="389" stroke="#6a6a5f" stroke-width="2"/><rect x="562" y="393" width="20" height="14" fill="#9aa3a5" stroke="#7b8385"/><rect x="142" y="415" width="486" height="10" fill="#a3937c"/>
      <line x1="142" y1="323" x2="628" y2="323" stroke="#8d9598" stroke-width="4"/><g stroke="#7d8487" stroke-width="5" fill="none">
    <path d="M624 430 L664 430 L664 195"/>
    <line x1="624" y1="300" x2="664" y2="292"/><line x1="624" y1="316" x2="664" y2="308"/><line x1="624" y1="332" x2="664" y2="324"/><line x1="624" y1="348" x2="664" y2="340"/><line x1="624" y1="364" x2="664" y2="356"/><line x1="624" y1="380" x2="664" y2="372"/><line x1="624" y1="396" x2="664" y2="388"/><line x1="624" y1="412" x2="664" y2="404"/>
  </g><g transform="translate(90,432) scale(1.1)">
    <rect x="-5" y="-18" width="10" height="26" fill="#8a6a4d"/>
    <circle cx="0" cy="-42" r="30" fill="#6da06b"/>
    <circle cx="-20" cy="-28" r="20" fill="#7cb079"/>
    <circle cx="20" cy="-28" r="20" fill="#639763"/></g><g transform="translate(730,434) scale(0.9)">
    <rect x="-5" y="-18" width="10" height="26" fill="#8a6a4d"/>
    <circle cx="0" cy="-42" r="30" fill="#6da06b"/>
    <circle cx="-20" cy="-28" r="20" fill="#7cb079"/>
    <circle cx="20" cy="-28" r="20" fill="#639763"/></g><rect x="60" y="446" width="680" height="4" fill="#9a927e" opacity="0.5"/></svg>