<svg xmlns="http://www.w3.org/2000/svg" viewBox="0 0 800 500"><defs><linearGradient id="sky" x1="0" y1="0" x2="0" y2="1">
    <stop offset="0" stop-color="#6ea7d8"/><stop offset="1" stop-color="#cfe6f7"/>
  </linearGradient></defs>
  <rect width="800" height="500" fill="url(#sky)"/><circle cx="160" cy="90" r="28" fill="#fff3c9" opacity="0.9"/><g fill="#ffffff" opacity="0.75">
      <ellipse cx="679" cy="-21" rx="46" ry="16"/>
      <ellipse cx="709" cy="-31" rx="30" ry="13"/>
      <ellipse cx="647" cy="-27" rx="26" ry="11"/></g><g fill="#ffffff" opacity="0.75">
      <ellipse cx="252" cy="-26" rx="46" ry="16"/>
      <ellipse cx="282" cy="-36" rx="30" ry="13"/>
      <ellipse cx="220" cy="-32" rx="26" ry="11"/></g><g fill="#ffffff" opacity="0.75">
      <ellipse cx="465" cy="7" rx="46" ry="16"/>
      <ellipse cx="495" cy="-3" rx="30" ry="13"/>
      <ellipse cx="433" cy="1" rx="26" ry="11"/></g><rect x="90" y="250" width="47" height="180" fill="#a9bfd2" opacity="0.8"/><rect x="190" y="320" width="58" height="110" fill="#a9bfd2" opacity="0.8"/><rect x="560" y="300" width="49" height="130" fill="#a9bfd2" opacity="0.8"/><rect x="660" y="230" width="44" height="200" fill="#a9bfd2" opacity="0.8"/><rect y="430" width="800" height="70" fill="#b9c3ae"/><defs><linearGradient id="glass" x1="0" y1="0" x2="0" y2="1">
      <stop offset="0" stop-color="#6f9cc4"/><stop offset="1" stop-color="#d6e8f4"/>
    </linearGradient></defs>
    <rect x="325" y="76" width="150" height="354" rx="10" fill="url(#glass)"/>
    <rect x="313" y="418" width="174" height="12" fill="#7b8ba0"/>
    <rect x="398" y="50" width="4" height="26" fill="#7b8ba0"/>
    
    <line x1="333" y1="102" x2="467" y2="102" stroke="#ffffff" stroke-width="1.6" opacity="0.5"/><line x1="333" y1="124" x2="467" y2="124" stroke="#ffffff" stroke-width="1.6" opacity="0.5"/><line x1="333" y1="146" x2="467" y2="146" stroke="#ffffff" stroke-width="1.6" opacity="0.5"/><line x1="333" y1="168" x2="467" y2="168" stroke="#ffffff" stroke-width="1.6" opacity="0.5"/><line x1="333" y1="190" x2="467" y2="190" stroke="#ffffff" stroke-width="1.6" opacity="0.5"/><line x1="333" y1="212" x2="467" y2="212" stroke="#ffffff" stroke-width="1.6" opacity="0.5"/><line x1="333" y1="234" x2="467" y2="234" stroke="#ffffff" stroke-width="1.6" opacity="0.5"/><line x1="333" y1="256" x2="467" y2="256" stroke="#ffffff" stroke-width="1.6" opacity="0.5"/><line x1="333" y1="278" x2="467" y2="278" stroke="#ffffff" stroke-width="1.6" opacity="0.5"/><line x1="333" y1="300" x2="467" y2="300" stroke="#ffffff" stroke-width="1.6" opacity="0.5"/><line x1="333" y1="322" x2="467" y2="322" stroke="#ffffff" stroke-width="1.6" opacity="0.5"/><line x1="333" y1="344" x2="467" y2="344" stroke="#ffffff" stroke-width="1.6" opacity="0.5"/><line x1="333" y1="366" x2="467" y2="366" stroke="#ffffff" stroke-width="1.6" opacity="0.5"/><line x1="333" y1="388" x2="467" y2="388" stroke="#ffffff" stroke-width="1.6" opacity="0.5"/><line x1="333" y1="410" x2="467" y2="410" stroke="#ffffff" stroke-width="1.6" opacity="0.5"/><line x1="355" y1="90" x2="355" y2="428" stroke="#ffffff" stroke-width="1.6" opacity="0.35"/><line x1="385" y1="90" x2="385" y2="428" stroke="#ffffff" stroke-width="1.6" opacity="0.35"/><line x1="415" y1="90" x2="415" y2="428" stroke="#ffffff" stroke-width="1.6" opacity="0.35"/><line x1="445" y1="90" x2="445" y2="428" stroke="#ffffff" stroke-width="1.6" opacity="0.35"/><g transform="translate(110,434) scale(1)">
    <rect x="-5" y="-18" width="10" height="26" fill="#8a6a4d"/>
    <circle cx="0" cy="-42" r="30" fill="#6da06b"/>
    <circle cx="-20" cy="-28" r="20" fill="#7cb079"/>
    <circle cx="20" cy="-28" r="20" fill="#639763"/></g><g transform="translate(690,434) scale(1.1)">
    <rect x="-5" y="-18" width="10" height="26" fill="#8a6a4d"/>
    <circle cx="0" cy="-42" r="30" fill="#6da06b"/>
    <circle cx="-20" cy="-28" r="20" fill="#7cb079"/>
    <circle cx="20" cy="-28" r="20" fill="#639763"/></g></svg>