<svg xmlns="http://www.w3.org/2000/svg" viewBox="0 0 800 500"><defs><linearGradient id="sky" x1="0" y1="0" x2="0" y2="1">
    <stop offset="0" stop-color="#4a6fa5"/><stop offset="1" stop-color="#e8c9a8"/>
  </linearGradient></defs>
  <rect width="800" height="500" fill="url(#sky)"/><circle cx="620" cy="150" r="36" fill="#f6c266" opacity="0.9"/><g fill="#ffffff" opacity="0.75">
      <ellipse cx="622" cy="-26" rx="46" ry="16"/>
      <ellipse cx="652" cy="-36" rx="30" ry="13"/>
      <ellipse cx="590" cy="-32" rx="26" ry="11"/></g><g fill="#ffffff" opacity="0.75">
      <ellipse cx="176" cy="-28" rx="46" ry="16"/>
      <ellipse cx="206" cy="-38" rx="30" ry="13"/>
      <ellipse cx="144" cy="-34" rx="26" ry="11"/></g><g fill="#ffffff" opacity="0.75">
      <ellipse cx="370" cy="6" rx="46" ry="16"/>
      <ellipse cx="400" cy="-4" rx="30" ry="13"/>
      <ellipse cx="338" cy="0" rx="26" ry="11"/></g><rect x="90" y="250" width="48" height="180" fill="#5a6f8d" opacity="0.8"/><rect x="190" y="320" width="59" height="110" fill="#5a6f8d" opacity="0.8"/><rect x="560" y="300" width="64" height="130" fill="#5a6f8d" opacity="0.8"/><rect x="660" y="230" width="52" height="200" fill="#5a6f8d" opacity="0.8"/><rect y="430" width="800" height="70" fill="#6d7a6b"/><defs><linearGradient id="glass" x1="0" y1="0" x2="0" y2="1">
      <stop offset="0" stop-color="#2e4a6b"/><stop offset="1" stop-color="#7d9cc0"/>
    </linearGradient></defs>
    <rect x="305" y="42" width="190" height="388" rx="10" fill="url(#glass)"/>
    <rect x="293" y="418" width="214" height="12" fill="#3c4a5c"/>
    <rect x="398" y="16" width="4" height="26" fill="#c9a86a"/>
    <rect x="305" y="52" width="190" height="6" fill="#c9a86a" opacity="0.9"/>
    <line x1="313" y1="68" x2="487" y2="68" stroke="#ffffff" stroke-width="1.6" opacity="0.5"/><line x1="313" y1="90" x2="487" y2="90" stroke="#ffffff" stroke-width="1.6" opacity="0.5"/><line x1="313" y1="112" x2="487" y2="112" stroke="#ffffff" stroke-width="1.6" opacity="0.5"/><line x1="313" y1="134" x2="487" y2="134" stroke="#ffffff" stroke-width="1.6" opacity="0.5"/><line x1="313" y1="156" x2="487" y2="156" stroke="#ffffff" stroke-width="1.6" opacity="0.5"/><line x1="313" y1="178" x2="487" y2="178" stroke="#ffffff" stroke-width="1.6" opacity="0.5"/><line x1="313" y1="200" x2="487" y2="200" stroke="#ffffff" stroke-width="1.6" opacity="0.5"/><line x1="313" y1="222" x2="487" y2="222" stroke="#ffffff" stroke-width="1.6" opacity="0.5"/><line x1="313" y1="244" x2="487" y2="244" stroke="#ffffff" stroke-width="1.6" opacity="0.5"/><line x1="313" y1="266" x2="487" y2="266" stroke="#ffffff" stroke-width="1.6" opacity="0.5"/><line x1="313" y1="288" x2="487" y2="288" stroke="#ffffff" stroke-width="1.6" opacity="0.5"/><line x1="313" y1="310" x2="487" y2="310" stroke="#ffffff" stroke-width="1.6" opacity="0.5"/><line x1="313" y1="332" x2="487" y2="332" stroke="#ffffff" stroke-width="1.6" opacity="0.5"/><line x1="313" y1="354" x2="487" y2="354" stroke="#ffffff" stroke-width="1.6" opacity="0.5"/><line x1="313" y1="376" x2="487" y2="376" stroke="#ffffff" stroke-width="1.6" opacity="0.5"/><line x1="313" y1="398" x2="487" y2="398" stroke="#ffffff" stroke-width="1.6" opacity="0.5"/><line x1="343" y1="56" x2="343" y2="428" stroke="#ffffff" stroke-width="1.6" opacity="0.35"/><line x1="381" y1="56" x2="381" y2="428" stroke="#ffffff" stroke-width="1.6" opacity="0.35"/><line x1="419" y1="56" x2="419" y2="428" stroke="#ffffff" stroke-width="1.6" opacity="0.35"/><line x1="457" y1="56" x2="457" y2="428" stroke="#ffffff" stroke-width="1.6" opacity="0.35"/><g transform="translate(110,434) scale(1)">
    <rect x="-5" y="-18" width="10" height="26" fill="#8a6a4d"/>
    <circle cx="0" cy="-42" r="30" fill="#6da06b"/>
    <circle cx="-20" cy="-28" r="20" fill="#7cb079"/>
    <circle cx="20" cy="-28" r="20" fill="#639763"/></g><g transform="translate(690,434) scale(1.1)">
    <rect x="-5" y="-18" width="10" height="26" fill="#8a6a4d"/>
    <circle cx="0" cy="-42" r="30" fill="#6da06b"/>
    <circle cx="-20" cy="-28" r="20" fill="#7cb079"/>
    <circle cx="20" cy="-28" r="20" fill="#639763"/></g></svg>