<svg xmlns="http://www.w3.org/2000/svg" viewBox="0 0 800 500">
    <rect width="800" height="360" fill="#e3dcc2"/>
    <rect y="348" width="800" height="12" fill="#a89c82"/>
    <ellipse cx="220" cy="180" rx="34" ry="14" fill="#b3a785" opacity="0.5"/>
      <ellipse cx="640" cy="140" rx="26" ry="10" fill="#b3a785" opacity="0.45"/>
    <g>
      <clipPath id="winClip"><rect x="166" y="116" width="230" height="150"/></clipPath>
      <g clip-path="url(#winClip)">
        <g transform="translate(166,116) scale(1.5333333333333334,1)">
          <rect width="150" height="150" fill="#cfe6f0"/>
    <circle cx="30" cy="96" r="26" fill="#7cb079"/>
    <circle cx="70" cy="104" r="30" fill="#6da06b"/>
    <circle cx="112" cy="98" r="24" fill="#8abd85"/>
    <rect y="112" width="150" height="38" fill="#a4c48f"/>
    <circle cx="116" cy="24" r="12" fill="#fff3c9"/>
        </g>
      </g>
      <rect x="166" y="116" width="230" height="150" fill="none" stroke="#8f9698" stroke-width="7"/>
      <line x1="281" y1="116" x2="281" y2="266" stroke="#8f9698" stroke-width="5"/>
    </g><line x1="400" y1="0" x2="400" y2="66" stroke="#c9c4ae" stroke-width="4"/>
       <ellipse cx="400" cy="76" rx="52" ry="14" fill="#f5f2e4" stroke="#c9c4ae" stroke-width="3"/><rect y="360" width="800" height="140" fill="#b4bf8e"/>
    <rect y="360" width="800" height="140" fill="url(#tatamiTex)"/>
    <line x1="0" y1="428" x2="800" y2="428" stroke="#96a476" stroke-width="3"/><line x1="0" y1="360" x2="100" y2="500" stroke="#96a476" stroke-width="3"/><line x1="200" y1="360" x2="300" y2="500" stroke="#96a476" stroke-width="3"/><line x1="400" y1="360" x2="500" y2="500" stroke="#96a476" stroke-width="3"/><line x1="600" y1="360" x2="700" y2="500" stroke="#96a476" stroke-width="3"/>
    <defs><pattern id="tatamiTex" width="8" height="8" patternUnits="userSpaceOnUse">
      <line x1="0" y1="0" x2="0" y2="8" stroke="#a8b482" stroke-width="1.4"/></pattern></defs>
      <rect x="520" y="392" width="150" height="18" rx="4" fill="#7a5a3e"/>
      <rect x="535" y="410" width="14" height="26" fill="#6b4e35"/><rect x="641" y="410" width="14" height="26" fill="#6b4e35"/>
      <ellipse cx="595" cy="386" rx="26" ry="8" fill="#b05555" opacity="0.9"/>
      <rect x="90" y="300" width="60" height="60" fill="#d8cfae" stroke="#a89e7c" stroke-width="3"/>
    <g transform="translate(70, 402)">
      <rect x="-16" y="0" width="32" height="30" fill="#a5674f"/>
      <path d="M0 0 C -30 -34 -8 -60 0 -66 C 8 -60 30 -34 0 0" fill="#5f8f5f"/>
      <path d="M-4 -6 C -40 -20 -36 -48 -28 -56" fill="none" stroke="#5f8f5f" stroke-width="7"/>
      <path d="M4 -6 C 40 -20 36 -48 28 -56" fill="none" stroke="#54815a" stroke-width="7"/>
    </g></svg>