<svg xmlns="http://www.w3.org/2000/svg" viewBox="0 0 800 500">
    <rect width="800" height="360" fill="#f4f2ec"/>
    <rect y="348" width="800" height="12" fill="#cfc9b8"/>
    
    <g>
      <clipPath id="winClip"><rect x="137" y="116" width="230" height="150"/></clipPath>
      <g clip-path="url(#winClip)">
        <g transform="translate(137,116) scale(1.5333333333333334,1)">
          <rect width="150" height="150" fill="#cfe6f0"/>
    <circle cx="30" cy="96" r="26" fill="#7cb079"/>
    <circle cx="70" cy="104" r="30" fill="#6da06b"/>
    <circle cx="112" cy="98" r="24" fill="#8abd85"/>
    <rect y="112" width="150" height="38" fill="#a4c48f"/>
    <circle cx="116" cy="24" r="12" fill="#fff3c9"/>
        </g>
      </g>
      <rect x="137" y="116" width="230" height="150" fill="none" stroke="#8b8f88" stroke-width="7"/>
      <line x1="252" y1="116" x2="252" y2="266" stroke="#8b8f88" stroke-width="5"/>
    </g><line x1="400" y1="0" x2="400" y2="66" stroke="#c9c4ae" stroke-width="4"/>
       <ellipse cx="400" cy="76" rx="52" ry="14" fill="#f5f2e4" stroke="#c9c4ae" stroke-width="3"/><rect y="360" width="800" height="140" fill="#d9bd94"/><line x1="0" y1="388" x2="800" y2="388" stroke="#c4a87e" stroke-width="2"/><line x1="0" y1="416" x2="800" y2="416" stroke="#c4a87e" stroke-width="2"/><line x1="0" y1="444" x2="800" y2="444" stroke="#c4a87e" stroke-width="2"/><line x1="0" y1="472" x2="800" y2="472" stroke="#c4a87e" stroke-width="2"/><line x1="60" y1="360" x2="60" y2="388" stroke="#c4a87e" stroke-width="2"/><line x1="160" y1="388" x2="160" y2="416" stroke="#c4a87e" stroke-width="2"/><line x1="260" y1="416" x2="260" y2="444" stroke="#c4a87e" stroke-width="2"/><line x1="360" y1="444" x2="360" y2="472" stroke="#c4a87e" stroke-width="2"/><line x1="460" y1="472" x2="460" y2="500" stroke="#c4a87e" stroke-width="2"/><line x1="560" y1="360" x2="560" y2="388" stroke="#c4a87e" stroke-width="2"/><line x1="660" y1="388" x2="660" y2="416" stroke="#c4a87e" stroke-width="2"/><line x1="760" y1="416" x2="760" y2="444" stroke="#c4a87e" stroke-width="2"/>
      <rect x="500" y="376" width="180" height="46" rx="10" fill="#5f7d74"/>
      <rect x="508" y="352" width="164" height="28" rx="8" fill="#5f7d74" opacity="0.85"/>
      <rect x="140" y="388" width="110" height="14" rx="4" fill="#9a7c5c"/>
      <rect x="150" y="402" width="12" height="30" fill="#86683f"/><rect x="228" y="402" width="12" height="30" fill="#86683f"/></svg>