<svg xmlns="http://www.w3.org/2000/svg" viewBox="0 0 800 500">
    <rect width="800" height="360" fill="#e8e2d4"/>
    <rect y="348" width="800" height="12" fill="#cfc9b8"/>
    
    <g>
      <clipPath id="winClip"><rect x="126" y="96" width="340" height="200"/></clipPath>
      <g clip-path="url(#winClip)">
        <g transform="translate(126,96) scale(2.2666666666666666,1.3333333333333333)">
          <rect width="150" height="150" fill="#2c3b57"/>
      <rect x="8" y="48" width="26" height="64" fill="#1d2a40"/>
      <rect x="44" y="30" width="30" height="82" fill="#16223655"/>
      <rect x="44" y="30" width="30" height="82" fill="#1a2739"/>
      <rect x="82" y="56" width="24" height="56" fill="#212f47"/>
      <g fill="#f2d98c"><rect x="12" y="56" width="5" height="5"/><rect x="22" y="70" width="5" height="5"/>
      <rect x="50" y="40" width="5" height="5"/><rect x="60" y="58" width="5" height="5"/>
      <rect x="88" y="64" width="5" height="5"/><rect x="50" y="84" width="5" height="5"/></g>
      <circle cx="118" cy="22" r="10" fill="#e8e3d2"/>
        </g>
      </g>
      <rect x="126" y="96" width="340" height="200" fill="none" stroke="#4c4436" stroke-width="7"/>
      <line x1="296" y1="96" x2="296" y2="296" stroke="#4c4436" stroke-width="5"/>
    </g><g stroke="#4c4436" stroke-width="3"><line x1="560" y1="60" x2="560" y2="120"/><line x1="620" y1="60" x2="620" y2="110"/></g>
       <circle cx="560" cy="132" r="13" fill="#f2d98c"/><circle cx="620" cy="122" r="13" fill="#f2d98c"/><rect y="360" width="800" height="140" fill="#d9bd94"/><line x1="0" y1="388" x2="800" y2="388" stroke="#c4a87e" stroke-width="2"/><line x1="0" y1="416" x2="800" y2="416" stroke="#c4a87e" stroke-width="2"/><line x1="0" y1="444" x2="800" y2="444" stroke="#c4a87e" stroke-width="2"/><line x1="0" y1="472" x2="800" y2="472" stroke="#c4a87e" stroke-width="2"/><line x1="60" y1="360" x2="60" y2="388" stroke="#c4a87e" stroke-width="2"/><line x1="160" y1="388" x2="160" y2="416" stroke="#c4a87e" stroke-width="2"/><line x1="260" y1="416" x2="260" y2="444" stroke="#c4a87e" stroke-width="2"/><line x1="360" y1="444" x2="360" y2="472" stroke="#c4a87e" stroke-width="2"/><line x1="460" y1="472" x2="460" y2="500" stroke="#c4a87e" stroke-width="2"/><line x1="560" y1="360" x2="560" y2="388" stroke="#c4a87e" stroke-width="2"/><line x1="660" y1="388" x2="660" y2="416" stroke="#c4a87e" stroke-width="2"/><line x1="760" y1="416" x2="760" y2="444" stroke="#c4a87e" stroke-width="2"/>
      <rect x="490" y="368" width="220" height="52" rx="12" fill="#4c5560"/>
      <rect x="500" y="344" width="200" height="30" rx="10" fill="#5d6772"/>
      <rect x="470" y="410" width="24" height="24" fill="#3a424c"/><rect x="706" y="410" width="24" height="24" fill="#3a424c"/>
      <ellipse cx="380" cy="440" rx="180" ry="34" fill="#b8ad98" opacity="0.7"/>
      <rect x="120" y="380" width="90" height="44" rx="6" fill="#6e5a41"/>
      <circle cx="526" cy="200" r="14" fill="#f2d98c"/>
      <line x1="526" y1="80" x2="526" y2="186" stroke="#4c4436" stroke-width="3"/>
    <g transform="translate(730, 402)">
      <rect x="-16" y="0" width="32" height="30" fill="#a5674f"/>
      <path d="M0 0 C -30 -34 -8 -60 0 -66 C 8 -60 30 -34 0 0" fill="#5f8f5f"/>
      <path d="M-4 -6 C -40 -20 -36 -48 -28 -56" fill="none" stroke="#5f8f5f" stroke-width="7"/>
      <path d="M4 -6 C 40 -20 36 -48 28 -56" fill="none" stroke="#54815a" stroke-width="7"/>
    </g></svg>